<svg version="1.2" xmlns="http://www.w3.org/2000/svg" viewBox="0 0 540 274" width="540" height="274">
	<title>default_logo-svg</title>
	<style>
		.s0 { fill: #ffffff } 
		.s1 { fill: #ffed00 } 
		.s2 { fill: #e3000b } 
		.s3 { fill: #000000 } 
	</style>
	<g id="g12">
		<path id="path2" class="s0" d="m172.5 40.5v193h193.1v-193z"/>
		<path id="path4" fill-rule="evenodd" class="s1" d="m365.6 40.5v193h-193.1v-193zm-17.5 64.8c-3.5-3.6-8.7-5.4-15.5-5.4q-3-0.2-5.9 0.4-2.9 0.5-5.6 1.7-2.7 1.2-5.1 3-2.4 1.7-4.3 4l-1.3 1.6-0.9-1.9c-0.7-1.5-1.3-2.2-2.1-3q-5.3-6-17.4-6-2.5-0.1-5 0.3-2.5 0.3-4.9 1.1-2.5 0.8-4.7 2.1-2.2 1.2-4.2 2.7l-1.2 1-0.9-1.3c-2.2-3.6-7.8-6-14.1-6-9.3 0-18.5 1.2-24.1 10.3l-2.4 3.7-0.1-4.4c-0.2-3.4-0.5-4.8-2.1-6.5-1.7-1.8-4.6-2.7-8.9-2.7q-2.2 0-4.3 0.5-2.2 0.6-4.1 1.7-1.9 1.1-3.4 2.7-1.5 1.5-2.6 3.5c-5.3 8.4-18 36.1-17.7 49.3 0.1 8.6 5.8 13.8 15.2 14 7.8 0.2 13.9-1.8 17.8-5.7l1-1 0.9 1q1.5 1.5 3.3 2.6 1.7 1.2 3.6 2 2 0.7 4 1.1 2.1 0.3 4.2 0.2c7.8 0 14.6-2.4 18.4-6.7l1.1-1.2 1 1.2c3.6 4.5 9.2 6.8 16.1 6.8q3.4 0 6.7-0.8 3.2-0.8 6.3-2.3 3-1.4 5.6-3.6 2.6-2.1 4.7-4.7l1.5-1.9 0.8 2.2c3.5 9.6 13 11 18.4 11 18.2 0 26.1-12.5 32.9-32.7 1.7-5 3.6-12.5 3.9-18.5 0.3-4.5-0.3-10.9-4.6-15.4z"/>
		<path id="path6" fill-rule="evenodd" class="s2" d="m365.6 40.5v193h-193.1v-193zm-11.2 62.8c-4.1-5.8-11.1-9.6-21.7-9.6q-2.9-0.1-5.7 0.3-2.8 0.4-5.5 1.3-2.7 0.9-5.2 2.2-2.5 1.4-4.7 3.2c-4.9-4.9-12-7.1-21.5-7.1q-2.5-0.1-5 0.2-2.5 0.3-4.9 0.9-2.5 0.7-4.8 1.6-2.3 1-4.5 2.2c-3.9-3.1-8.6-5.1-15.9-5.1-6.8 0-16.2 0.4-23.3 6.4-1.6-3.3-5-6-14.2-6q-3 0-5.9 0.8-3 0.7-5.6 2.2-2.6 1.5-4.7 3.7-2.2 2.1-3.7 4.8c-6 9.6-18.9 37.6-18.6 52.8 0.3 11.5 8.9 19.4 21.4 19.7q2.4 0.2 4.9 0 2.4-0.3 4.8-0.8 2.4-0.6 4.7-1.6 2.2-0.9 4.3-2.2 1.8 1.2 3.8 2.2 1.9 0.9 4 1.5 2.1 0.6 4.2 0.9 2.2 0.3 4.3 0.3 2.6 0.1 5.1-0.3 2.5-0.3 5-1 2.4-0.7 4.7-1.7 2.4-1.1 4.5-2.5c4.5 3.6 10.5 5.5 17.2 5.5q3.2 0 6.4-0.5 3.1-0.6 6.1-1.7 3-1.1 5.8-2.8 2.7-1.6 5.1-3.7c4.5 5.7 12.1 8.6 21.5 8.6 17.4 0 26.5-10.7 33.2-24.6 2.5-5.2 7.3-18.2 8.1-25.3 1.1-8.6 2.2-16.7-3.7-24.8z"/>
		<path id="path8" fill-rule="evenodd" class="s3" d="m171.1 39.1h195.8v195.8h-195.8zm2.7 193h190.4v-190.3h-190.4z"/>
		<path id="path10" fill-rule="evenodd" class="s3" d="m361.4 94.9c0.9 0.8 1.4 2 1.4 3.3 0 1.2-0.5 2.4-1.4 3.3-0.9 0.9-2.1 1.4-3.3 1.4-1.3 0-2.5-0.5-3.4-1.4-0.8-0.9-1.3-2.1-1.3-3.3 0-1.3 0.5-2.5 1.3-3.3 0.9-0.9 2.1-1.4 3.4-1.4 1.2 0 2.4 0.5 3.3 1.4zm-6 0.6c-0.7 0.7-1.1 1.7-1.1 2.7 0 1 0.4 1.9 1.1 2.6 0.7 0.8 1.7 1.2 2.7 1.2 1-0.1 2-0.5 2.7-1.2 0.7-0.7 1.1-1.6 1-2.6 0-1-0.4-2-1.1-2.7-0.7-0.7-1.6-1.1-2.6-1.1-1 0-2 0.4-2.7 1.1zm3.9 5.1l-0.4-0.8c-0.2-0.3-0.5-0.7-0.7-0.9-0.2-0.2-0.4-0.3-0.8-0.3h-0.2v2h-1v-4.8h2.4c1.1 0 1.6 0.6 1.6 1.3 0 0.8-0.5 1.3-1.3 1.4 0.4 0.2 0.5 0.3 1 1.2l0.6 0.9zm-1.1-2.7c0.7 0 0.9-0.4 0.9-0.7 0-0.4-0.3-0.7-1-0.7h-0.9v1.4zm-4.1 22.9c-0.4 6.5-2.5 14.2-4 18.9-6.9 20.6-15.3 33.6-34.2 33.6-8.6 0-16.5-3.4-19.7-11.9q-2.1 2.8-4.9 5-2.7 2.2-5.9 3.8-3.1 1.5-6.5 2.3-3.5 0.8-7 0.9c-7.5 0-13.4-2.7-17.2-7.3-4.4 4.9-11.9 7.2-19.4 7.2q-2.3 0.1-4.5-0.3-2.1-0.4-4.2-1.2-2.1-0.8-3.9-2.1-1.9-1.2-3.4-2.8c-4.1 4.2-10.6 6.4-18.8 6.2-10.5-0.3-16.4-6.6-16.6-15.4-0.3-13.5 12.6-41.5 18-50q1.1-2.1 2.7-3.8 1.7-1.7 3.8-2.9 2-1.2 4.3-1.8 2.3-0.6 4.7-0.5c3.7 0 7.6 0.6 9.9 3.1 2 2.1 2.3 3.9 2.4 7.4 6-9.6 16-10.9 25.2-10.9 7.1 0 13 2.6 15.4 6.6 4.7-4 11.5-6.6 19.7-6.6 8.3 0 14.6 2.1 18.5 6.5q0.3 0.3 0.6 0.7 0.3 0.4 0.6 0.9 0.3 0.4 0.5 0.8 0.3 0.5 0.5 0.9 2-2.3 4.5-4.2 2.5-1.8 5.3-3.1 2.8-1.2 5.9-1.8 3-0.6 6.1-0.5c17.6 0 22.1 11.5 21.6 22.3zm-147.5 29.5c4.1-9.2 16.6-32.7 16.7-40.4 0.1-2.8-1.1-5.3-5.8-5.3-4.9 0-8 2.1-10.6 6.3-5.5 8.8-17.3 35.5-17 47 0.1 6.6 5.2 9.2 10.9 9.3 7.8 0.2 16.8-2 17.7-11.8 0.3-3.3-2.1-6.8-11.9-5.1zm49.2-15.9c1.7-5.8-2.5-8.1-12.5-6.7 1.9-4.8 3.7-7.6 3.7-7.6 2.1 0.2 5.7 0 8-0.1 5.4-0.3 10.8-2.8 10.8-9.2 0-4.7-5.6-6.7-10.5-6.7-11.2 0-17.7 1.6-24.1 14.3-5.2 10.2-10.7 25.7-10.7 35.9 0 8.7 7 13.2 14.9 13.2 7.3 0 17.7-2.8 17.7-12.2 0-3.9-3-5.9-7.7-6q-1.3 0-2.5 0-1.2 0.1-2.5 0.3-1.2 0.1-2.4 0.4-1.2 0.2-2.4 0.6 0.3-1.2 0.7-2.4 0.3-1.2 0.6-2.3 0.4-1.2 0.8-2.3 0.4-1.2 0.8-2.3c8.3 1.4 15 0.9 17.3-6.9zm34.1-13.5c-2.2 6.4 4.5 6.6 6.2 6.4 5.9-0.4 9.2-4.2 10-10.7 1.1-8.9-6.4-12.3-15.8-12.3-15.8 0-22 9.6-27.8 23.4-2.8 6.5-6.3 17.5-6.3 24.6 0 9.9 6 15.2 15.7 15.2 14.2 0 24.1-11.3 27-25.3 0.9-4.4 2-12.5-9-12-5.6 0.2-9 1.4-10.7 7.1-1.9 5.9 4.8 6.1 4.8 6.1-1.4 6-5.3 9.7-8.8 9.7-2.1 0-4.1-0.9-3.5-5.5 1-6.7 7.3-23 10.2-27.1 1.4-1.9 3.1-3.6 5.8-3.6 3.3 0 3 1.7 2.2 4zm43.4-16.5c-16.1-0.2-21.2 10.4-26.1 23.5-2.9 7.2-6.3 18.2-6.2 26 0 10.9 8 13.4 15 13.5 7 0.1 15.1-1.5 21.7-13.5 4.1-7.3 7.8-17.1 9.5-25.4 1.4-7.2 4.8-23.9-13.9-24.1zm0.5 16c-0.2 5-7.5 25-10.1 29.4-1.1 1.9-2.4 3.5-4.7 3.5-2 0-2.9-1.5-3-3.1-0.1-4.5 8.2-27.1 11-30.8 1.3-1.9 2.7-2.3 4.3-2.2 2.4 0 2.6 1.7 2.5 3.2z"/>
	</g>
</svg>