<svg xmlns="http://www.w3.org/2000/svg" xmlns:xlink="http://www.w3.org/1999/xlink" version="1.1" x="0px" y="0px" viewBox="0 0 100 125" enable-background="new 0 0 100 100" xml:space="preserve"><path fill="#000000" d="M2.821,52.229c0.018,0.028,0.032,0.052,0.059,0.071c0.011,0.008,0.013,0.022,0.024,0.029l65.21,34.475  c0.038,0.02,0.077,0.029,0.117,0.029c0.049,0,0.095-0.017,0.135-0.043c0.003-0.002,0.007-0.001,0.01-0.003l28.087-19.993  c0.007-0.005,0.006-0.014,0.012-0.02c0.025-0.021,0.034-0.048,0.049-0.076c0.016-0.03,0.034-0.055,0.037-0.089  c0-0.007,0.008-0.012,0.008-0.02V47.45c0-0.014-0.013-0.022-0.015-0.036c-0.004-0.025-0.011-0.045-0.022-0.068  c-0.006-0.013,0-0.028-0.009-0.04c-0.005-0.007-0.014-0.006-0.02-0.012c-0.013-0.016-0.027-0.023-0.044-0.035  c-0.011-0.008-0.013-0.022-0.024-0.029l-65.209-34.41c-0.013-0.007-0.026,0.001-0.04-0.004c-0.032-0.011-0.059-0.012-0.092-0.009  c-0.033,0.002-0.061,0.005-0.09,0.021c-0.013,0.006-0.027,0.001-0.039,0.009L2.877,32.809c-0.007,0.005-0.006,0.014-0.012,0.02  c-0.016,0.013-0.023,0.027-0.035,0.043c-0.008,0.012-0.023,0.013-0.03,0.025s0.001,0.026-0.004,0.04  c-0.007,0.021-0.015,0.035-0.017,0.057c0,0.007-0.008,0.012-0.008,0.02v19.097c0,0.014,0.013,0.022,0.015,0.035  C2.791,52.178,2.805,52.201,2.821,52.229z M14.196,26.087l1.472-0.556l1.635-0.275h1.735l1.636,0.276l1.471,0.532l1.215,0.734  l0.822,0.862l0.399,0.959v0.972l-0.401,0.944l-0.818,0.879l-1.178,0.716l-1.487,0.552l-1.616,0.276h-1.729l-1.691-0.278  l-1.462-0.509l-1.175-0.755l-0.864-0.844l-0.399-0.979v-0.972l0.4-0.941l0.821-0.883L14.196,26.087z M23.361,34.608l-1.176,0.715  l-1.486,0.51l-1.619,0.276h-1.731l-1.691-0.236l-1.459-0.507l-1.175-0.755l-0.864-0.845l-0.399-0.979v-1.022v-0.9  c0.007,0.009,0.004,0.021,0.013,0.029l0.918,0.896c0.007,0.007,0.018,0.005,0.025,0.011c0.007,0.005,0.007,0.016,0.015,0.021  l1.226,0.787c0.011,0.007,0.023,0.005,0.035,0.011c0.007,0.003,0.01,0.013,0.018,0.016l1.509,0.525  c0.011,0.004,0.021,0.003,0.032,0.006c0.004,0,0.005,0.004,0.009,0.005l1.729,0.284c0.015,0.002,0.028,0.003,0.041,0.003H19.1  c0.014,0,0.028-0.001,0.042-0.004l1.663-0.284c0.004-0.001,0.005-0.005,0.008-0.005c0.013-0.003,0.025-0.002,0.037-0.007  l1.531-0.568c0.006-0.002,0.008-0.01,0.014-0.013c0.009-0.004,0.02-0.002,0.029-0.008l1.225-0.744  c0.012-0.007,0.013-0.021,0.022-0.03c0.009-0.008,0.022-0.005,0.03-0.014l0.875-0.94c0.004-0.004,0.002-0.009,0.005-0.013v1.956  l-0.401,0.944L23.361,34.608z M11.764,27.374c-0.011,0.012-0.008,0.029-0.016,0.042c-0.009,0.013-0.025,0.016-0.031,0.03  l-0.438,1.027c-0.007,0.017,0.003,0.034,0,0.052c-0.004,0.017-0.02,0.028-0.02,0.046v1.072v2.122v1.071  c0,0.018,0.016,0.028,0.019,0.045c0.003,0.018-0.007,0.033,0,0.05l0.438,1.072c0.009,0.022,0.029,0.035,0.043,0.053  c0.008,0.01,0.005,0.022,0.014,0.031l0.918,0.896c0.007,0.007,0.018,0.004,0.025,0.011c0.007,0.005,0.007,0.016,0.015,0.021  l1.226,0.788c0.011,0.007,0.023,0.005,0.035,0.011c0.007,0.003,0.01,0.013,0.018,0.016l1.509,0.524  c0.013,0.004,0.026,0.004,0.039,0.007c0.004,0,0.005,0.004,0.009,0.005l1.729,0.241c0.012,0.001,0.023,0.002,0.034,0.002H19.1  c0.014,0,0.028-0.001,0.042-0.004l1.663-0.284c0.003-0.001,0.004-0.004,0.007-0.004c0.011-0.003,0.021-0.002,0.032-0.006  l1.531-0.525c0.007-0.002,0.008-0.01,0.015-0.013c0.011-0.005,0.023-0.003,0.034-0.01l1.225-0.744  c0.012-0.007,0.013-0.021,0.022-0.03c0.009-0.008,0.022-0.005,0.03-0.014l0.875-0.94c0.008-0.008,0.004-0.02,0.011-0.028  c0.012-0.016,0.029-0.025,0.037-0.044l0.438-1.028c0.007-0.017-0.003-0.034,0-0.052c0.004-0.017,0.02-0.028,0.02-0.046v-3.193  v-1.072c0-0.019-0.016-0.029-0.02-0.047c-0.003-0.017,0.007-0.032,0-0.049l-0.438-1.05c-0.007-0.016-0.023-0.02-0.032-0.032  c-0.009-0.015-0.006-0.032-0.018-0.045l-0.875-0.919c-0.009-0.009-0.022-0.007-0.032-0.014c-0.009-0.008-0.009-0.021-0.02-0.027  l-1.269-0.766c-0.008-0.005-0.017,0-0.024-0.004c-0.009-0.004-0.011-0.015-0.02-0.018l-1.51-0.547  c-0.008-0.003-0.016,0.003-0.023,0.001s-0.012-0.011-0.02-0.012l-1.684-0.284c-0.009-0.002-0.014,0.006-0.021,0.005  s-0.013-0.009-0.021-0.009h-1.772c-0.008,0-0.013,0.008-0.021,0.009s-0.014-0.007-0.021-0.005l-1.685,0.284  c-0.009,0.001-0.012,0.011-0.021,0.013c-0.008,0.002-0.017-0.004-0.025-0.001l-1.509,0.569c-0.008,0.003-0.009,0.012-0.017,0.016  c-0.007,0.003-0.015-0.001-0.021,0.003l-0.843,0.494l13.583-9.659l-0.871,0.894c-0.012,0.013-0.009,0.03-0.018,0.045  c-0.01,0.014-0.028,0.019-0.035,0.035l-0.438,1.071c-0.007,0.017,0.003,0.032,0,0.05c-0.003,0.017-0.019,0.027-0.019,0.045v1.051  v2.144v1.071c0,0.019,0.016,0.03,0.02,0.047c0.004,0.019-0.007,0.035,0.001,0.053l0.438,1.007c0.008,0.019,0.025,0.028,0.037,0.044  c0.007,0.009,0.004,0.021,0.012,0.029l0.919,0.962c0.009,0.009,0.022,0.006,0.032,0.014s0.011,0.021,0.021,0.028l1.225,0.723  c0.009,0.005,0.019,0.004,0.028,0.008c0.006,0.003,0.007,0.011,0.014,0.013l1.51,0.547c0.012,0.004,0.023,0.004,0.035,0.006  c0.004,0.001,0.005,0.004,0.008,0.005l1.684,0.284c0.015,0.003,0.028,0.004,0.042,0.004h1.772c0.013,0,0.026-0.001,0.041-0.003  l1.728-0.284c0.004-0.001,0.006-0.005,0.009-0.006c0.012-0.002,0.023-0.002,0.035-0.006l1.51-0.547  c0.007-0.003,0.009-0.011,0.016-0.014c0.011-0.005,0.022-0.004,0.032-0.01l1.225-0.766c0.01-0.006,0.01-0.02,0.02-0.026  c0.008-0.007,0.021-0.005,0.028-0.013l0.875-0.919c0.009-0.009,0.005-0.022,0.013-0.031c0.012-0.017,0.029-0.026,0.037-0.046  l0.438-1.05c0.007-0.017-0.003-0.032,0-0.049c0.004-0.018,0.02-0.028,0.02-0.047v-3.194v-1.071c0-0.018-0.016-0.029-0.02-0.046  c-0.003-0.018,0.007-0.035,0-0.052l-0.438-1.028c-0.007-0.016-0.024-0.019-0.033-0.032c-0.01-0.015-0.006-0.032-0.019-0.045  l-0.155-0.159l12.021,6.343l-1.071-0.153c-0.007-0.001-0.012,0.005-0.018,0.004c-0.007,0-0.011-0.007-0.018-0.007h-1.75  c-0.008,0-0.013,0.008-0.021,0.009s-0.014-0.007-0.021-0.005l-1.684,0.285c-0.008,0.001-0.012,0.01-0.019,0.012  c-0.008,0.002-0.016-0.004-0.023-0.001l-1.531,0.547c-0.008,0.003-0.01,0.013-0.018,0.016c-0.009,0.004-0.018-0.001-0.025,0.004  l-1.226,0.722c-0.012,0.007-0.013,0.021-0.022,0.03c-0.01,0.008-0.024,0.005-0.033,0.015l-0.896,0.962  c-0.011,0.012-0.007,0.027-0.015,0.04c-0.009,0.013-0.025,0.016-0.032,0.03l-0.46,1.051c-0.008,0.018,0.003,0.035-0.001,0.054  c-0.004,0.017-0.02,0.028-0.02,0.047v1.071v2.101v1.094c0,0.021,0.018,0.033,0.021,0.053c0.005,0.02-0.005,0.039,0.004,0.058  l0.504,1.027c0.007,0.014,0.021,0.021,0.03,0.033c0.006,0.007,0.003,0.018,0.009,0.024l0.853,0.941  c0.01,0.011,0.024,0.007,0.035,0.016s0.012,0.024,0.024,0.032l1.269,0.743c0.009,0.006,0.02,0.004,0.029,0.008  c0.006,0.003,0.007,0.01,0.013,0.012l1.531,0.547c0.012,0.004,0.023,0.004,0.034,0.006c0.003,0.001,0.005,0.004,0.008,0.005  l1.663,0.284c0.014,0.003,0.028,0.004,0.042,0.004h1.771c0.014,0,0.027-0.001,0.042-0.004l1.685-0.284  c0.003,0,0.004-0.004,0.008-0.005c0.012-0.002,0.023-0.002,0.035-0.006l1.51-0.547c0.007-0.003,0.009-0.011,0.015-0.014  c0.011-0.005,0.021-0.003,0.031-0.009l1.246-0.766c0.011-0.007,0.011-0.021,0.021-0.028s0.022-0.005,0.031-0.014l0.897-0.962  c0.008-0.008,0.004-0.02,0.011-0.028c0.011-0.014,0.026-0.022,0.034-0.039l0.459-1.007c0.008-0.018-0.002-0.036,0.002-0.054  c0.004-0.019,0.021-0.03,0.021-0.05v-3.216v-1.071c0-0.021-0.018-0.034-0.022-0.054c-0.004-0.02,0.006-0.039-0.004-0.058  l-0.503-1.007c-0.006-0.011-0.019-0.013-0.025-0.022s-0.004-0.023-0.012-0.032l-0.187-0.21l12.107,6.389l-1.113-0.157  c-0.007-0.001-0.012,0.005-0.019,0.005s-0.01-0.007-0.017-0.007h-1.728c-0.007,0-0.01,0.006-0.017,0.007  c-0.007,0-0.011-0.006-0.018-0.005l-1.729,0.24c-0.011,0.001-0.015,0.012-0.024,0.015c-0.01,0.002-0.02-0.005-0.029-0.001  l-1.509,0.569c-0.008,0.003-0.01,0.013-0.018,0.017c-0.007,0.003-0.016-0.001-0.022,0.003l-1.247,0.743  c-0.012,0.007-0.013,0.022-0.022,0.03c-0.011,0.009-0.025,0.006-0.035,0.017l-0.854,0.941c-0.01,0.011-0.006,0.026-0.014,0.039  c-0.008,0.012-0.023,0.014-0.029,0.027l-0.459,1.027c-0.008,0.018,0.002,0.035-0.001,0.053c-0.004,0.019-0.021,0.03-0.021,0.049  v1.116v2.078v1.071c0,0.019,0.016,0.03,0.02,0.048s-0.006,0.034,0.001,0.051l0.459,1.072c0.009,0.021,0.027,0.031,0.04,0.048  c0.007,0.009,0.004,0.021,0.013,0.03l0.897,0.896c0.008,0.008,0.019,0.005,0.026,0.011c0.008,0.007,0.008,0.018,0.017,0.023  l1.246,0.788c0.011,0.007,0.023,0.005,0.034,0.01c0.008,0.004,0.01,0.013,0.018,0.016l1.51,0.524  c0.011,0.004,0.021,0.003,0.032,0.006c0.004,0,0.005,0.004,0.009,0.005l1.729,0.285c0.014,0.002,0.027,0.003,0.041,0.003  c0.002,0,0.004,0,0.007,0l1.728-0.044c0.001,0,0.001-0.001,0.002-0.001c0.009,0,0.018-0.001,0.026-0.002l1.706-0.241  c0.004,0,0.005-0.004,0.008-0.005c0.015-0.003,0.029-0.003,0.044-0.008l1.531-0.568c0.006-0.002,0.008-0.01,0.013-0.013  c0.01-0.004,0.021-0.002,0.03-0.008l1.226-0.744c0.012-0.008,0.013-0.022,0.023-0.031c0.01-0.008,0.023-0.005,0.032-0.015  l0.853-0.94c0.007-0.008,0.004-0.019,0.01-0.027c0.01-0.014,0.025-0.021,0.033-0.038l0.46-1.028  c0.008-0.018-0.002-0.036,0.001-0.055c0.005-0.018,0.021-0.029,0.021-0.048v-3.193V35.79c0-0.02-0.017-0.031-0.021-0.049  c-0.003-0.018,0.007-0.034-0.001-0.052l-0.46-1.05c-0.007-0.015-0.023-0.019-0.033-0.031c-0.008-0.014-0.005-0.031-0.017-0.043  l-0.144-0.147l12.06,6.364l-1.093-0.185c-0.008-0.002-0.014,0.006-0.021,0.005s-0.013-0.009-0.021-0.009H80.24  c-0.008,0-0.013,0.008-0.021,0.009s-0.014-0.007-0.021-0.005l-1.684,0.284c-0.008,0.001-0.011,0.009-0.018,0.011  c-0.008,0.002-0.015-0.004-0.022-0.001l-1.51,0.525c-0.011,0.004-0.014,0.016-0.023,0.021s-0.021,0-0.029,0.006l-1.225,0.787  c-0.009,0.006-0.009,0.018-0.017,0.024c-0.009,0.007-0.021,0.005-0.029,0.013l-0.897,0.94c-0.011,0.012-0.008,0.028-0.016,0.041  c-0.009,0.013-0.025,0.016-0.032,0.03l-0.459,1.028c-0.008,0.019,0.002,0.037-0.001,0.057c-0.005,0.02-0.021,0.034-0.021,0.055  l0.044,1.067l-0.044,2.111c0,0.003,0.003,0.004,0.003,0.007s-0.003,0.005-0.003,0.008l0.044,1.072  c0.001,0.017,0.016,0.026,0.02,0.043c0.003,0.015-0.006,0.03,0,0.045l0.438,1.028c0.008,0.019,0.025,0.028,0.037,0.044  c0.007,0.009,0.003,0.021,0.011,0.028l0.875,0.94c0.008,0.009,0.021,0.006,0.029,0.013c0.01,0.009,0.01,0.023,0.021,0.03  l1.269,0.787c0.011,0.007,0.023,0.005,0.034,0.01c0.007,0.003,0.009,0.011,0.016,0.014l1.509,0.525  c0.014,0.004,0.026,0.004,0.04,0.007c0.003,0,0.004,0.004,0.007,0.004l1.685,0.24c0.012,0.002,0.023,0.003,0.035,0.003h1.772  c0.014,0,0.027-0.001,0.042-0.004l1.684-0.284c0.003,0,0.004-0.004,0.007-0.004c0.011-0.003,0.022-0.002,0.033-0.006l1.51-0.524  c0.006-0.002,0.008-0.01,0.014-0.012c0.01-0.005,0.021-0.003,0.031-0.009l1.269-0.744c0.013-0.008,0.014-0.023,0.024-0.032  c0.009-0.008,0.022-0.004,0.031-0.014l0.875-0.94c0.008-0.008,0.004-0.02,0.011-0.028c0.012-0.016,0.029-0.025,0.037-0.044  l0.438-1.028c0.007-0.017-0.003-0.034,0-0.052c0.004-0.017,0.02-0.028,0.02-0.046v-3.193v-1.116c0-0.02-0.017-0.032-0.021-0.05  c-0.004-0.02,0.006-0.038-0.003-0.057l-0.481-1.028c-0.007-0.014-0.023-0.017-0.032-0.029c-0.008-0.012-0.005-0.028-0.016-0.039  l-0.138-0.141l8.452,4.46L68.239,67.109l-0.055-0.043c0.018-0.066,0.012-0.138-0.029-0.199c-0.077-0.116-0.233-0.146-0.347-0.069  l-0.008,0.005L3.498,32.98l9.008-6.405L11.764,27.374z M31.13,13.333l3.153,1.664l-1.164-0.191  c-0.009-0.001-0.014,0.006-0.021,0.005c-0.008,0-0.012-0.008-0.02-0.008H31.35c-0.008,0-0.012,0.008-0.02,0.008  c-0.008,0.001-0.014-0.006-0.021-0.005l-1.706,0.284c-0.008,0.001-0.012,0.01-0.02,0.012c-0.007,0.002-0.014-0.004-0.021-0.001  l-1.531,0.525c-0.011,0.004-0.014,0.016-0.023,0.021s-0.021,0-0.03,0.006l-1.148,0.738L31.13,13.333z M37.425,24.614l-1.175,0.734  l-1.463,0.53l-1.688,0.277h-1.73l-1.636-0.276l-1.473-0.533l-1.17-0.69l-0.865-0.906l-0.399-0.919v-1.019V20.85  c0.005,0.006,0.003,0.016,0.009,0.021l0.919,0.941c0.008,0.008,0.021,0.006,0.029,0.013s0.009,0.021,0.02,0.026l1.225,0.743  c0.01,0.006,0.021,0.004,0.03,0.009c0.007,0.003,0.008,0.011,0.015,0.013l1.51,0.547c0.012,0.004,0.023,0.004,0.035,0.006  c0.004,0.001,0.005,0.005,0.008,0.005l1.684,0.284c0.015,0.003,0.028,0.004,0.042,0.004h1.772c0.013,0,0.026-0.001,0.041-0.003  l1.728-0.284c0.004-0.001,0.006-0.005,0.009-0.006c0.012-0.002,0.023-0.002,0.035-0.006l1.51-0.547  c0.007-0.003,0.009-0.011,0.016-0.015c0.011-0.004,0.022-0.003,0.032-0.009l1.225-0.766c0.01-0.006,0.01-0.02,0.02-0.026  c0.008-0.007,0.021-0.005,0.028-0.013l0.875-0.919c0.005-0.005,0.003-0.013,0.007-0.018v1.94l-0.399,0.959L37.425,24.614z   M27.049,16.843l1.172-0.754l1.48-0.508l1.672-0.278h1.682l1.691,0.278l1.462,0.509l1.177,0.715l0.862,0.883l0.399,0.939v0.971  l-0.399,0.959l-0.822,0.863l-1.175,0.734l-1.463,0.53l-1.688,0.277h-1.73l-1.636-0.276l-1.468-0.531l-1.177-0.715l-0.863-0.884  l-0.399-0.938v-0.949l0.4-0.981L27.049,16.843z M26.736,16.463c-0.007,0.006-0.017,0.004-0.022,0.01l0.032-0.022  C26.741,16.453,26.741,16.459,26.736,16.463z M53.721,33.233l-1.193,0.732l-1.469,0.532l-1.637,0.276h-1.733l-1.618-0.276  l-1.489-0.532l-1.215-0.711l-0.804-0.888L42.1,31.423v-1.035v-1.021l0.029,0.06c0.007,0.014,0.021,0.021,0.03,0.033  c0.006,0.007,0.003,0.018,0.009,0.024l0.853,0.94c0.009,0.01,0.023,0.007,0.034,0.015c0.011,0.01,0.012,0.025,0.024,0.033  l1.269,0.744c0.01,0.006,0.021,0.005,0.032,0.009c0.006,0.003,0.008,0.01,0.014,0.012l1.531,0.524  c0.011,0.004,0.021,0.003,0.032,0.006c0.003,0,0.004,0.003,0.007,0.004l1.663,0.285c0.014,0.003,0.028,0.004,0.042,0.004h1.771  c0.014,0,0.027-0.001,0.042-0.004l1.685-0.285c0.003-0.001,0.004-0.004,0.007-0.004c0.011-0.003,0.022-0.002,0.033-0.006l1.51-0.524  c0.008-0.003,0.01-0.012,0.018-0.016c0.011-0.005,0.023-0.003,0.034-0.01l1.246-0.788c0.009-0.006,0.009-0.017,0.017-0.023  c0.008-0.006,0.019-0.003,0.026-0.011l0.897-0.896c0.009-0.009,0.006-0.021,0.013-0.03c0.006-0.009,0.015-0.015,0.02-0.023v1.966  l-0.419,0.92L53.721,33.233z M54.987,28.192l-0.419,0.979l-0.845,0.844l-1.196,0.757l-1.468,0.51l-1.638,0.277h-1.733l-1.619-0.277  l-1.487-0.51l-1.217-0.714l-0.803-0.885L42.1,28.229V27.27l0.423-0.966l0.841-0.902l1.178-0.693l1.486-0.531l1.638-0.277h1.717  l1.634,0.233l1.486,0.574l1.222,0.695l0.802,0.903l0.462,0.925V28.192z M70.039,41.829l-1.175,0.714l-1.484,0.551l-1.659,0.234  l-1.691,0.043l-1.688-0.278l-1.463-0.508l-1.196-0.757l-0.845-0.844l-0.419-0.979v-1.021v-0.926c0.006,0.01,0.014,0.016,0.021,0.023  c0.007,0.009,0.004,0.021,0.012,0.029l0.897,0.896c0.008,0.008,0.019,0.005,0.026,0.011c0.008,0.007,0.008,0.018,0.017,0.023  l1.246,0.787c0.011,0.007,0.023,0.005,0.034,0.01c0.008,0.004,0.01,0.013,0.018,0.016l1.51,0.525  c0.011,0.004,0.021,0.003,0.032,0.006c0.004,0,0.005,0.004,0.009,0.005l1.729,0.284c0.015,0.002,0.028,0.003,0.041,0.003h1.728  c0.014,0,0.027-0.001,0.041-0.003l1.706-0.284c0.004-0.001,0.005-0.005,0.009-0.006c0.011-0.002,0.021-0.001,0.031-0.005  l1.531-0.525c0.008-0.003,0.01-0.013,0.018-0.016c0.012-0.005,0.025-0.004,0.036-0.011l1.226-0.787  c0.011-0.007,0.011-0.021,0.02-0.028c0.01-0.008,0.022-0.005,0.031-0.014l0.853-0.94c0.007-0.008,0.004-0.019,0.01-0.027  c0.005-0.006,0.011-0.01,0.015-0.017v1.986l-0.423,0.945L70.039,41.829z M59.643,34.017l1.193-0.712l1.463-0.552l1.688-0.234h1.692  l1.665,0.235l1.478,0.527l1.178,0.736l0.844,0.865l0.42,0.959v0.966l-0.423,0.945l-0.805,0.888l-1.169,0.751l-1.48,0.508  l-1.672,0.278h-1.681l-1.691-0.278l-1.463-0.509l-1.196-0.756l-0.845-0.844l-0.419-0.938v-1.009l0.421-0.942L59.643,34.017z   M86.363,50.444l-1.22,0.716l-1.469,0.51l-1.637,0.276h-1.739l-1.637-0.233L77.2,51.204l-1.221-0.758l-0.818-0.879l-0.403-0.949  l-0.042-1.021l0.02-0.927c0.006,0.01,0.014,0.017,0.021,0.025c0.007,0.01,0.004,0.022,0.013,0.031l0.875,0.897  c0.009,0.009,0.021,0.006,0.03,0.013s0.01,0.021,0.02,0.026l1.269,0.766c0.009,0.006,0.02,0.004,0.029,0.008  c0.007,0.003,0.008,0.012,0.015,0.014l1.509,0.547c0.014,0.005,0.028,0.005,0.042,0.008c0.003,0,0.005,0.004,0.008,0.004l1.685,0.24  c0.012,0.002,0.023,0.003,0.035,0.003h1.772c0.012,0,0.023-0.001,0.035-0.003l1.684-0.24c0.004-0.001,0.006-0.005,0.01-0.006  c0.016-0.003,0.031-0.003,0.046-0.009l1.51-0.591c0.004-0.002,0.005-0.007,0.009-0.008c0.008-0.004,0.017-0.003,0.024-0.007  l1.269-0.722c0.013-0.008,0.015-0.023,0.025-0.033c0.011-0.008,0.025-0.005,0.034-0.015l0.875-0.941  c0.003-0.003,0.001-0.008,0.004-0.011v1.955l-0.401,0.944L86.363,50.444z M75.984,42.633l1.17-0.752l1.468-0.511l1.637-0.276h1.735  l1.643,0.277l1.504,0.509l1.174,0.754l0.826,0.847l0.44,0.941v1.008l-0.4,0.941l-0.818,0.88l-1.227,0.698l-1.459,0.57l-1.635,0.233  h-1.743l-1.635-0.233l-1.468-0.531l-1.217-0.734l-0.819-0.841l-0.402-0.985l-0.04-0.971l0.418-0.935L75.984,42.633z M3.271,33.427  l64.407,33.878l0.303,0.238v18.626l-64.71-34.21V33.427z M68.481,67.551l27.587-19.616v18.527L68.481,86.099V67.551z"/><path fill="#000000" d="M60.213,58.77l0.438,1.028c0.009,0.021,0.027,0.032,0.041,0.049c0.007,0.009,0.004,0.022,0.013,0.03  l0.919,0.918c0.008,0.008,0.019,0.005,0.027,0.011c0.008,0.007,0.008,0.019,0.017,0.024l1.226,0.766  c0.01,0.006,0.021,0.005,0.032,0.01c0.007,0.003,0.009,0.011,0.016,0.014l1.509,0.547c0.012,0.004,0.023,0.004,0.035,0.006  c0.003,0.001,0.005,0.005,0.009,0.006l1.729,0.285c0.014,0.002,0.027,0.003,0.041,0.003h1.728c0.014,0,0.027-0.001,0.041-0.004  l1.707-0.284c0.004-0.001,0.006-0.005,0.01-0.006c0.011-0.002,0.022-0.002,0.033-0.006l1.531-0.547  c0.007-0.003,0.009-0.011,0.016-0.014c0.011-0.005,0.022-0.003,0.033-0.01l1.225-0.766c0.012-0.007,0.012-0.021,0.021-0.03  c0.01-0.008,0.022-0.005,0.031-0.014l0.854-0.94c0.007-0.008,0.004-0.02,0.01-0.028c0.011-0.014,0.025-0.021,0.033-0.038  l0.459-1.028c0.008-0.018-0.002-0.035,0.001-0.053c0.004-0.018,0.021-0.03,0.021-0.049v-3.215v-1.051  c0-0.019-0.016-0.03-0.021-0.049c-0.003-0.018,0.007-0.035-0.001-0.053l-0.459-1.027c-0.007-0.015-0.023-0.018-0.032-0.03  c-0.008-0.013-0.005-0.029-0.016-0.041l-0.897-0.941c-0.008-0.008-0.021-0.006-0.029-0.013c-0.008-0.007-0.008-0.019-0.017-0.024  l-1.225-0.787c-0.009-0.006-0.021-0.001-0.029-0.006c-0.01-0.005-0.013-0.017-0.023-0.021l-1.51-0.525  c-0.009-0.003-0.016,0.003-0.024,0.002c-0.008-0.003-0.012-0.012-0.021-0.013l-1.728-0.262c-0.008-0.001-0.012,0.005-0.02,0.005  c-0.007-0.001-0.011-0.008-0.018-0.008h-1.729c-0.008,0-0.013,0.008-0.021,0.009c-0.008,0.001-0.015-0.007-0.022-0.005L64.446,50.9  c-0.007,0.001-0.011,0.009-0.018,0.011s-0.014-0.003-0.021-0.001l-1.509,0.525c-0.01,0.003-0.012,0.014-0.021,0.019  c-0.009,0.004-0.019-0.001-0.027,0.004l-1.226,0.743c-0.011,0.007-0.012,0.021-0.021,0.029s-0.023,0.005-0.032,0.015l-0.875,0.941  c-0.011,0.012-0.008,0.029-0.016,0.042c-0.009,0.013-0.025,0.016-0.031,0.03l-0.438,1.027c-0.007,0.017,0.003,0.034,0,0.052  c-0.004,0.017-0.02,0.028-0.02,0.046v1.094v2.101v1.094c0,0.018,0.016,0.029,0.02,0.046C60.216,58.735,60.206,58.752,60.213,58.77z   M61.915,52.611l1.174-0.712l1.466-0.511l1.686-0.298h1.689l1.684,0.255l1.464,0.51l1.17,0.752l0.849,0.891l0.42,0.939v0.943  l-0.421,0.942l-0.807,0.89l-1.168,0.751l-1.485,0.509l-1.667,0.299h-1.684l-1.686-0.298l-1.466-0.511l-1.177-0.715l-0.863-0.883  l-0.399-0.939v-0.99l0.4-0.941L61.915,52.611z M72.291,60.425l-1.173,0.733l-1.486,0.53l-1.665,0.277h-1.681l-1.689-0.278  l-1.462-0.53l-1.179-0.736l-0.863-0.862l-0.399-0.938v-1.042v-0.919c0.005,0.006,0.003,0.016,0.009,0.021l0.919,0.94  c0.008,0.008,0.021,0.006,0.029,0.013s0.01,0.021,0.02,0.026l1.226,0.744c0.011,0.006,0.022,0.005,0.033,0.009  c0.006,0.003,0.008,0.012,0.015,0.014l1.509,0.525c0.011,0.003,0.021,0.003,0.031,0.005c0.003,0.001,0.004,0.004,0.007,0.005  l1.729,0.306c0.016,0.003,0.03,0.004,0.044,0.004h1.728c0.015,0,0.029-0.001,0.044-0.004l1.707-0.306  c0.003-0.001,0.005-0.004,0.008-0.005c0.01-0.002,0.02-0.001,0.029-0.005l1.531-0.525c0.008-0.003,0.01-0.013,0.018-0.016  c0.012-0.005,0.025-0.004,0.036-0.011l1.225-0.787c0.011-0.007,0.011-0.021,0.02-0.028c0.01-0.008,0.022-0.005,0.031-0.014  l0.854-0.941c0.007-0.008,0.004-0.02,0.01-0.028c0.004-0.006,0.01-0.01,0.014-0.016v2.01l-0.421,0.943L72.291,60.425z"/><path fill="#000000" d="M27.6,41.558l0.459,1.028c0.008,0.019,0.025,0.027,0.037,0.043c0.006,0.009,0.003,0.021,0.011,0.028  l0.897,0.94c0.008,0.009,0.021,0.006,0.03,0.013c0.01,0.008,0.01,0.021,0.021,0.028l1.225,0.744  c0.011,0.006,0.022,0.005,0.033,0.009c0.006,0.003,0.008,0.012,0.015,0.014l1.51,0.524c0.011,0.004,0.022,0.003,0.033,0.006  c0.003,0,0.004,0.004,0.007,0.004l1.685,0.284c0.015,0.003,0.028,0.004,0.042,0.004h1.771c0.013,0,0.026-0.001,0.041-0.003  l1.729-0.284c0.004-0.001,0.005-0.005,0.009-0.005c0.011-0.003,0.021-0.002,0.032-0.006l1.509-0.524  c0.008-0.003,0.011-0.013,0.019-0.016c0.011-0.006,0.023-0.004,0.034-0.011l1.226-0.788c0.009-0.006,0.009-0.018,0.017-0.023  c0.008-0.007,0.02-0.004,0.027-0.012l0.875-0.896c0.009-0.009,0.006-0.021,0.013-0.031c0.013-0.017,0.031-0.028,0.04-0.049  l0.438-1.072c0.007-0.017-0.003-0.032,0-0.05c0.003-0.017,0.019-0.027,0.019-0.045v-3.149v-1.116c0-0.018-0.016-0.029-0.02-0.046  c-0.003-0.018,0.007-0.034,0-0.052l-0.438-1.028c-0.007-0.016-0.024-0.019-0.034-0.032c-0.009-0.015-0.005-0.032-0.018-0.045  l-0.919-0.94c-0.008-0.008-0.021-0.006-0.029-0.013s-0.01-0.021-0.02-0.026l-1.226-0.743c-0.009-0.005-0.019,0-0.027-0.004  c-0.009-0.005-0.011-0.016-0.021-0.019l-1.509-0.525c-0.007-0.002-0.014,0.003-0.021,0.001s-0.012-0.011-0.02-0.012l-1.729-0.284  c-0.009-0.001-0.014,0.006-0.021,0.005c-0.008,0-0.012-0.008-0.02-0.008h-1.75c-0.008,0-0.013,0.008-0.021,0.009  s-0.014-0.007-0.021-0.005l-1.685,0.284c-0.008,0.001-0.011,0.009-0.018,0.011s-0.015-0.004-0.021-0.001l-1.531,0.525  c-0.011,0.004-0.014,0.016-0.023,0.021s-0.021,0-0.03,0.006l-1.225,0.787c-0.01,0.007-0.01,0.02-0.019,0.027  c-0.01,0.008-0.023,0.005-0.032,0.015l-0.854,0.94c-0.01,0.011-0.006,0.026-0.014,0.039c-0.008,0.012-0.023,0.014-0.029,0.027  L27.6,37.089c-0.008,0.018,0.002,0.035-0.001,0.053c-0.004,0.018-0.021,0.03-0.021,0.049v1.072v2.121v1.072  c0,0.019,0.017,0.031,0.021,0.049C27.602,41.522,27.592,41.54,27.6,41.558z M29.306,35.412l1.168-0.751l1.485-0.51l1.641-0.276  h1.708l1.691,0.278l1.462,0.509l1.177,0.714l0.863,0.883l0.399,0.939v1.013l-0.4,0.941l-0.82,0.882l-1.176,0.692l-1.463,0.53  l-1.689,0.277h-1.733l-1.636-0.233l-1.464-0.53l-1.175-0.734l-0.846-0.888l-0.42-0.939v-0.965l0.421-0.943L29.306,35.412z   M39.678,43.188l-1.173,0.754l-1.462,0.508l-1.691,0.278h-1.729l-1.638-0.276l-1.468-0.51l-1.175-0.714l-0.844-0.885l-0.42-0.94  v-1.019v-0.97c0.005,0.008,0.012,0.014,0.018,0.021c0.006,0.009,0.003,0.021,0.011,0.028l0.897,0.941  c0.008,0.008,0.021,0.006,0.029,0.013s0.009,0.021,0.019,0.026l1.225,0.766c0.01,0.006,0.021,0.005,0.032,0.01  c0.007,0.003,0.009,0.011,0.016,0.014l1.51,0.547c0.014,0.005,0.028,0.005,0.042,0.008c0.003,0,0.005,0.004,0.008,0.004l1.685,0.24  c0.012,0.002,0.023,0.003,0.035,0.003h1.771c0.013,0,0.026-0.001,0.041-0.003l1.729-0.284c0.004-0.001,0.006-0.005,0.009-0.006  c0.012-0.002,0.023-0.002,0.035-0.006l1.509-0.547c0.006-0.002,0.007-0.009,0.013-0.012c0.01-0.004,0.021-0.003,0.029-0.008  l1.226-0.722c0.013-0.007,0.014-0.022,0.023-0.031c0.01-0.008,0.024-0.005,0.033-0.015l0.875-0.941  c0.003-0.003,0.001-0.008,0.004-0.011v1.914l-0.4,0.981L39.678,43.188z"/><path fill="#000000" d="M43.879,50.186l0.503,1.027c0.007,0.014,0.021,0.021,0.03,0.033c0.006,0.007,0.002,0.018,0.009,0.024  l0.853,0.941c0.01,0.011,0.024,0.007,0.035,0.016c0.011,0.01,0.012,0.025,0.025,0.033l1.247,0.722  c0.01,0.006,0.021,0.004,0.03,0.008c0.005,0.002,0.006,0.009,0.012,0.011l1.554,0.547c0.011,0.004,0.022,0.004,0.033,0.006  c0.003,0.001,0.005,0.004,0.008,0.005l1.684,0.284c0.015,0.003,0.028,0.004,0.042,0.004h1.75c0.014,0,0.027-0.001,0.042-0.004  l1.685-0.284c0.003,0,0.004-0.004,0.008-0.005c0.012-0.002,0.023-0.002,0.035-0.006l1.51-0.547c0.007-0.003,0.009-0.011,0.015-0.014  c0.011-0.005,0.021-0.003,0.031-0.009l1.247-0.766c0.011-0.006,0.011-0.02,0.02-0.027c0.009-0.007,0.022-0.004,0.03-0.013  l0.896-0.94c0.008-0.008,0.005-0.02,0.011-0.028c0.012-0.016,0.029-0.024,0.037-0.043l0.459-1.028  c0.008-0.018-0.002-0.035,0.001-0.053c0.004-0.018,0.021-0.03,0.021-0.049v-3.194c0-0.002-0.002-0.003-0.002-0.005  s0.002-0.003,0.002-0.005l-0.043-1.071c-0.001-0.02-0.016-0.03-0.021-0.049c-0.003-0.015,0.006-0.029-0.001-0.044l-0.46-1.028  c-0.006-0.014-0.021-0.016-0.029-0.027s-0.004-0.027-0.014-0.038l-0.853-0.94c-0.01-0.011-0.025-0.009-0.036-0.018  c-0.011-0.008-0.012-0.023-0.023-0.03l-1.27-0.744c-0.008-0.005-0.018,0-0.025-0.004c-0.009-0.004-0.011-0.014-0.02-0.017  l-1.531-0.524c-0.008-0.003-0.014,0.003-0.021,0.001c-0.007-0.002-0.01-0.01-0.018-0.011l-1.684-0.285  c-0.008-0.002-0.014,0.005-0.021,0.005c-0.008-0.001-0.013-0.009-0.021-0.009H49.9c-0.008,0-0.013,0.008-0.021,0.009  s-0.014-0.007-0.021-0.005l-1.685,0.285c-0.008,0.001-0.011,0.009-0.018,0.011c-0.008,0.002-0.015-0.004-0.022-0.001l-1.51,0.524  c-0.01,0.004-0.013,0.015-0.021,0.02c-0.009,0.004-0.019-0.001-0.026,0.004l-1.29,0.788c-0.01,0.006-0.011,0.019-0.019,0.026  c-0.01,0.007-0.023,0.005-0.032,0.014l-0.854,0.896c-0.012,0.012-0.008,0.029-0.017,0.043c-0.009,0.013-0.025,0.016-0.032,0.031  l-0.459,1.072c-0.007,0.017,0.003,0.033-0.001,0.051s-0.02,0.029-0.02,0.048v1.05v2.144v1.072c0,0.021,0.018,0.033,0.021,0.053  C43.88,50.147,43.87,50.167,43.879,50.186z M45.576,44.035l1.234-0.754l1.471-0.511l1.638-0.277h1.713l1.64,0.277l1.488,0.511  l1.215,0.711l0.8,0.883l0.425,0.949l0.039,0.965l-0.418,0.957l-0.843,0.863l-1.197,0.734l-1.47,0.532l-1.636,0.277h-1.713  l-1.64-0.278l-1.508-0.53l-1.194-0.712l-0.806-0.889l-0.461-0.942V45.86l0.421-0.982L45.576,44.035z M44.382,47.997  c0.007,0.015,0.021,0.021,0.03,0.033c0.005,0.008,0.002,0.019,0.009,0.025l0.853,0.94c0.009,0.01,0.023,0.007,0.034,0.015  c0.011,0.009,0.011,0.024,0.023,0.032l1.247,0.743c0.01,0.006,0.021,0.004,0.032,0.009c0.005,0.002,0.007,0.01,0.013,0.012  l1.554,0.547c0.011,0.004,0.022,0.004,0.033,0.006c0.003,0.001,0.005,0.004,0.008,0.005l1.684,0.285  c0.015,0.003,0.028,0.004,0.042,0.004h1.75c0.014,0,0.027-0.001,0.042-0.004l1.685-0.285c0.003-0.001,0.004-0.004,0.008-0.005  c0.012-0.002,0.023-0.002,0.035-0.006l1.51-0.547c0.007-0.003,0.009-0.011,0.015-0.014c0.011-0.005,0.021-0.003,0.031-0.009  l1.247-0.766c0.01-0.006,0.01-0.019,0.019-0.025s0.021-0.005,0.029-0.013l0.896-0.918c0.008-0.008,0.005-0.021,0.012-0.029  c0.006-0.008,0.014-0.014,0.019-0.021v1.966l-0.42,0.94l-0.845,0.887l-1.195,0.733l-1.47,0.532l-1.636,0.276h-1.713l-1.64-0.276  l-1.508-0.531l-1.196-0.692l-0.803-0.886l-0.462-0.944v-1.014v-1.063L44.382,47.997z"/></svg>